HIERARCHY
ROOT Hips
{
	OFFSET 0.00000 0.00000 0.00000
	CHANNELS 6 Xposition Yposition Zposition Zrotation Yrotation Xrotation 
	JOINT LHipJoint
	{
		OFFSET 0 0 0
		CHANNELS 3 Zrotation Yrotation Xrotation
		JOINT LeftUpLeg
		{
			OFFSET 1.57093 -1.69714 0.87455
			CHANNELS 3 Zrotation Yrotation Xrotation
			JOINT LeftLeg
			{
				OFFSET 2.48056 -6.81529 0.00000
				CHANNELS 3 Zrotation Yrotation Xrotation
				JOINT LeftFoot
				{
					OFFSET 2.62558 -7.21374 0.00000
					CHANNELS 3 Zrotation Yrotation Xrotation
					JOINT LeftToeBase
					{
						OFFSET 0.17911 -0.49210 2.16707
						CHANNELS 3 Zrotation Yrotation Xrotation
						End Site
						{
							OFFSET 0.00000 -0.00000 1.11848
						}
					}
				}
			}
		}
	}
	JOINT RHipJoint
	{
		OFFSET 0 0 0
		CHANNELS 3 Zrotation Yrotation Xrotation
		JOINT RightUpLeg
		{
			OFFSET -1.69739 -1.69715 0.87455
			CHANNELS 3 Zrotation Yrotation Xrotation
			JOINT RightLeg
			{
				OFFSET -2.33658 -6.41972 0.00000
				CHANNELS 3 Zrotation Yrotation Xrotation
				JOINT RightFoot
				{
					OFFSET -2.60856 -7.16696 0.00000
					CHANNELS 3 Zrotation Yrotation Xrotation
					JOINT RightToeBase
					{
						OFFSET -0.20854 -0.57296 2.11053
						CHANNELS 3 Zrotation Yrotation Xrotation
						End Site
						{
							OFFSET -0.00000 -0.00000 1.09848
						}
					}
				}
			}
		}
	}
	JOINT LowerBack
	{
		OFFSET 0 0 0
		CHANNELS 3 Zrotation Yrotation Xrotation
		JOINT Spine
		{
			OFFSET 0.02563 2.15732 -0.03270
			CHANNELS 3 Zrotation Yrotation Xrotation
			JOINT Spine1
			{
				OFFSET 0.00281 2.14662 0.09285
				CHANNELS 3 Zrotation Yrotation Xrotation
				JOINT Neck
				{
					OFFSET 0 0 0
					CHANNELS 3 Zrotation Yrotation Xrotation
					JOINT Neck1
					{
						OFFSET -0.04440 1.68397 0.17601
						CHANNELS 3 Zrotation Yrotation Xrotation
						JOINT Head
						{
							OFFSET 0.06040 1.66995 -0.35615
							CHANNELS 3 Zrotation Yrotation Xrotation
							End Site
							{
								OFFSET 0.02405 1.72189 -0.14044
							}
						}
					}
				}
				JOINT LeftShoulder
				{
					OFFSET 0 0 0
					CHANNELS 3 Zrotation Yrotation Xrotation
					JOINT LeftArm
					{
						OFFSET 2.98955 1.90907 -0.21660
						CHANNELS 3 Zrotation Yrotation Xrotation
						JOINT LeftForeArm
						{
							OFFSET 4.91377 -0.00000 0.00000
							CHANNELS 3 Zrotation Yrotation Xrotation
							JOINT LeftHand
							{
								OFFSET 3.00291 -0.00000 -0.00000
								CHANNELS 3 Zrotation Yrotation Xrotation
								JOINT LeftFingerBase
								{
									OFFSET 0 0 0
									CHANNELS 3 Zrotation Yrotation Xrotation
									JOINT LeftHandIndex1
									{
										OFFSET 0.45092 -0.00000 -0.00000
										CHANNELS 3 Zrotation Yrotation Xrotation
										End Site
										{
											OFFSET 0.36355 -0.00000 -0.00000
										}
									}
								}
								JOINT LThumb
								{
									OFFSET 0 0 0
									CHANNELS 3 Zrotation Yrotation Xrotation
									End Site
									{
										OFFSET 0.36910 -0.00000 0.36910
									}
								}
							}
						}
					}
				}
				JOINT RightShoulder
				{
					OFFSET 0 0 0
					CHANNELS 3 Zrotation Yrotation Xrotation
					JOINT RightArm
					{
						OFFSET -2.80452 1.90886 -0.21152
						CHANNELS 3 Zrotation Yrotation Xrotation
						JOINT RightForeArm
						{
							OFFSET -4.86725 -0.00000 0.00000
							CHANNELS 3 Zrotation Yrotation Xrotation
							JOINT RightHand
							{
								OFFSET -3.17144 -0.00000 -0.00000
								CHANNELS 3 Zrotation Yrotation Xrotation
								JOINT RightFingerBase
								{
									OFFSET 0 0 0
									CHANNELS 3 Zrotation Yrotation Xrotation
									JOINT RightHandIndex1
									{
										OFFSET -0.41937 -0.00000 -0.00000
										CHANNELS 3 Zrotation Yrotation Xrotation
										End Site
										{
											OFFSET -0.33810 -0.00000 -0.00000
										}
									}
								}
								JOINT RThumb
								{
									OFFSET 0 0 0
									CHANNELS 3 Zrotation Yrotation Xrotation
									End Site
									{
										OFFSET -0.34327 -0.00000 0.34327
									}
								}
							}
						}
					}
				}
			}
		}
	}
}
MOTION
Frames: 9
Frame Time: 0.0186916
0.00 0.00 0.00 5.7588 1.6712 98.5715 0.0000 0.0000 0.0000 -17.1512 -27.6942 -39.7105 4.8746 13.2412 40.2783 0.0874 5.6982 -10.2918 0.1475 -2.4752 -6.8209 0.0000 0.0000 0.0000 13.9112 24.1568 -38.8573 -4.4060 -12.6819 38.1890 -1.2510 -6.7158 19.9890 -0.0978 -2.0169 5.5524 -4.3441 0.5429 -8.1630 2.8764 1.0251 -1.8240 5.5537 0.4916 2.5538 -12.0123 -3.4140 5.0492 21.2881 -5.8310 6.4647 8.6247 -2.9343 1.9620 -0.0000 0.0000 0.0000 -8.7348 -52.3033 1.3171 79.6244 -59.5893 -51.0268 -0.0000 0.0000 -65.0353 51.4365 -8.2747 -10.2328 -7.1250 0.0000 -0.0000 16.9906 17.1737 -11.7474 -0.0000 0.0000 0.0000 -5.0095 31.1749 -12.2421 -82.3664 59.7787 -53.3940 0.0000 -0.0000 -46.6178 -33.6418 5.4045 -3.5864 7.1250 -0.0000 -0.0000 -5.1386 -23.5018 -2.6736
0.00 0.00 0.00 5.0312 1.6880 96.2487 0.0000 0.0000 0.0000 -18.3134 -26.1814 -37.8413 4.9189 13.2919 40.4713 0.1330 2.3089 -8.1428 0.5381 -4.7000 -13.0550 0.0000 0.0000 0.0000 12.7223 25.3193 -37.4068 -4.5558 -12.8654 38.8667 -1.2527 -6.6389 20.0038 -0.1863 -2.7795 7.6656 -3.8078 0.6519 -6.6208 2.9494 1.0736 -1.3223 5.2987 0.5148 2.2182 -12.9108 -3.3628 3.2532 21.8640 -5.8785 7.6762 8.9573 -2.8403 2.6669 -0.0000 -0.0000 0.0000 -5.1517 -50.7711 8.5197 94.0633 -59.9375 -63.5182 -0.0000 0.0000 -65.8768 51.8205 -7.6540 -9.6135 -7.1250 0.0000 -0.0000 17.4018 18.0110 -11.7224 -0.0000 -0.0000 0.0000 -1.1120 30.1320 -1.7525 -102.6048 59.3911 -70.8938 0.0000 -0.0000 -43.9249 -32.4126 6.2315 -3.9425 7.1250 -0.0000 -0.0000 -4.1644 -22.6160 -2.2485
0.00 0.00 0.00 3.7034 1.5485 93.5870 0.0000 0.0000 0.0000 -19.2148 -25.4235 -35.2868 5.1432 13.5433 41.4378 0.0600 2.0182 -5.8301 0.2336 -3.1106 -8.5868 0.0000 0.0000 0.0000 10.5798 28.1594 -36.3118 -4.7102 -13.0498 39.5552 -1.4112 -3.7621 21.5427 -0.3177 -3.6233 10.0192 -3.9832 1.4393 -5.6921 3.2390 2.1103 -1.0643 5.7543 1.0408 1.8248 -13.0884 -3.8298 2.4746 22.9177 -6.6412 8.4428 9.3262 -3.1308 3.2027 -0.0000 -0.0000 0.0000 -6.8466 -52.6803 17.7622 113.7997 -57.7477 -80.4553 -0.0000 0.0000 -62.9282 52.3585 -7.6708 -9.8188 -7.1250 0.0000 -0.0000 17.7433 17.8582 -12.0398 -0.0000 -0.0000 0.0000 0.0372 29.2512 10.6392 -119.4124 56.4645 -85.1696 0.0000 -0.0000 -43.4323 -33.4753 5.6316 -3.7128 7.1250 -0.0000 -0.0000 -4.9952 -23.2437 -2.6281
0.00 0.00 0.00 3.3868 1.8386 90.7518 0.0000 0.0000 0.0000 -21.1080 -22.2240 -35.3753 6.1319 14.5549 45.5087 -0.0000 2.2771 -3.2505 0.0768 -1.7882 -4.9206 0.0000 0.0000 0.0000 11.6006 27.8093 -37.1075 -5.1929 -13.5978 41.6494 -1.6528 -0.9969 24.0256 -0.4606 -4.3535 12.0733 -3.9439 2.1153 -4.3264 3.0320 2.9754 -0.7122 5.5094 1.4807 1.3274 -12.9821 -4.9836 0.6436 25.2599 -8.1391 7.5796 10.0100 -3.7478 3.6775 0.0000 -0.0000 0.0000 -10.6571 -56.7243 28.9146 130.9961 -52.5858 -94.6192 -0.0000 0.0000 -59.6430 53.1953 -7.4071 -9.7760 -7.1250 0.0000 -0.0000 18.3518 18.0586 -12.4129 0.0000 -0.0000 0.0000 0.1019 30.0824 22.0696 -133.0291 51.6983 -96.2244 0.0000 -0.0000 -43.6524 -38.1073 3.5642 -2.7914 7.1250 -0.0000 -0.0000 -8.6389 -25.4450 -4.1338
0.00 0.00 0.00 3.6989 2.1088 86.6528 0.0000 0.0000 0.0000 -20.3534 -20.6009 -44.1730 10.5046 17.6840 61.1620 -0.0429 3.8333 -0.2310 0.0139 0.7611 2.0916 0.0000 0.0000 0.0000 13.1275 22.5747 -44.6139 -8.0547 -16.1593 52.7593 -1.9072 2.0156 26.8898 -0.3821 -3.9695 10.9909 -3.3988 3.3256 -0.9257 2.7570 4.4774 -0.1339 4.7632 2.2530 -0.1011 -15.9792 -6.1015 -1.9008 31.2186 -9.5436 5.6874 12.7221 -4.3415 4.4427 0.0000 0.0000 0.0000 -11.3373 -62.2846 38.4878 144.1977 -45.3766 -104.6184 -0.0000 0.0000 -51.1698 57.1981 -7.9644 -12.1330 -7.1250 0.0000 -0.0000 20.6702 16.0350 -15.1902 0.0000 0.0000 0.0000 3.1555 33.8937 34.2123 -144.1926 45.3801 -104.6148 0.0000 -0.0000 -34.4697 -51.2109 3.5826 -4.4457 7.1250 -0.0000 -0.0000 -18.1027 -24.2573 -9.5316
0.00 0.00 0.00 3.9720 2.1351 84.6689 0.0000 0.0000 0.0000 -18.2313 -22.2195 -50.8978 15.5344 19.5150 76.8414 0.0149 1.5574 2.2709 0.1881 2.7936 7.7045 0.0000 0.0000 0.0000 12.8076 20.1447 -52.0587 -11.7484 -18.2823 65.1892 -1.8654 3.5065 27.2531 -0.4496 -4.3018 11.9274 -2.8675 3.3302 1.3817 2.6106 4.4234 -0.0053 4.1708 2.2383 -1.2031 -16.8822 -6.3023 -1.6618 33.6558 -9.9957 5.6331 13.9527 -4.5902 4.7414 0.0000 -0.0000 0.0000 -9.5577 -67.0724 31.8831 144.4522 -45.1993 -104.7993 -0.0000 0.0000 -42.4991 59.0488 -6.2718 -10.3241 -7.1250 0.0000 -0.0000 22.3558 18.3273 -15.4106 0.0000 -0.0000 0.0000 2.6006 37.7198 29.9431 -144.4281 45.2162 -104.7821 0.0000 -0.0000 -28.3900 -54.1377 2.6373 -3.6422 7.1250 -0.0000 -0.0000 -20.4192 -25.3733 -10.3365
0.00 0.00 0.00 3.5824 1.5906 82.3573 0.0000 0.0000 0.0000 -17.1274 -20.8187 -56.4284 20.9916 19.9764 92.9005 0.0132 -0.3584 2.3339 0.1202 2.2351 6.1558 0.0000 0.0000 0.0000 13.5842 16.1262 -57.5097 -15.8272 -19.5773 77.7165 -0.6373 9.6305 21.5082 -0.2422 -3.1669 8.7437 -3.1455 3.9004 3.9244 2.5233 5.1055 0.3009 4.0405 2.5889 -2.3920 -17.4090 -6.5523 -0.7228 34.6297 -10.3612 5.1032 14.4881 -4.8824 4.6293 -0.0000 -0.0000 0.0000 -3.3459 -74.8854 15.1693 142.8504 -46.2875 -103.6519 -0.0000 0.0000 -38.6150 59.5975 -6.4123 -10.7768 -7.1250 0.0000 -0.0000 22.6354 17.9109 -15.8682 -0.0000 -0.0000 0.0000 -3.1855 42.7078 17.6614 -141.8286 46.9484 -102.9093 0.0000 -0.0000 -26.7476 -56.5877 2.1470 -3.2503 7.1250 -0.0000 -0.0000 -22.2801 -25.8911 -11.1310
0.00 0.00 0.00 4.0982 1.5397 82.0386 0.0000 0.0000 0.0000 -15.7654 -19.9328 -60.6240 24.1886 19.5740 102.3308 -0.0433 -3.8574 0.2112 0.0003 -0.1049 -0.2883 0.0000 0.0000 0.0000 13.8619 12.5620 -62.1354 -19.4936 -19.9938 88.5191 0.3320 14.5267 16.4107 -0.1790 -2.7254 7.5152 -3.3724 4.2636 4.4642 2.6432 5.5728 0.1161 4.2056 2.8389 -2.9645 -17.0885 -6.7834 0.4337 34.5233 -10.6381 4.5762 14.3527 -5.1286 4.3091 0.0000 0.0000 0.0000 16.9543 -79.3838 -13.1464 136.1362 -50.1996 -98.6378 -0.0000 0.0000 -37.4228 58.9649 -3.8532 -6.3726 -7.1250 0.0000 -0.0000 23.2037 22.5877 -13.6378 0.0000 0.0000 0.0000 -9.3172 44.8048 5.0958 -136.8843 49.8113 -99.2109 0.0000 -0.0000 -33.8543 -56.7198 2.6057 -3.9622 7.1250 -0.0000 -0.0000 -22.1998 -25.1059 -11.5299
0.00 0.00 0.00 4.1409 1.4461 81.0801 0.0000 0.0000 0.0000 -14.5410 -18.2472 -62.0604 26.2093 19.0493 108.4358 -0.0841 -6.9175 -2.4129 0.0895 -1.9294 -5.3107 0.0000 0.0000 0.0000 13.8616 9.8071 -64.1002 -22.6012 -19.8370 97.6252 0.7218 17.2121 15.7523 -0.1741 -2.6880 7.4112 -3.7573 4.8642 5.5264 2.7565 6.3165 0.3575 4.3903 3.2139 -3.4394 -16.6379 -7.1896 1.4633 34.6411 -11.1550 4.0778 14.2723 -5.4817 4.1051 0.0000 0.0000 0.0000 45.8754 -80.3398 -48.1420 130.3021 -52.8729 -94.0669 -0.0000 0.0000 -42.6350 57.3313 -2.2134 -3.4468 -7.1250 0.0000 -0.0000 22.7628 25.6904 -11.5307 0.0000 0.0000 0.0000 -14.8447 44.1619 -5.5537 -132.2592 52.0427 -95.6188 0.0000 -0.0000 -41.4555 -56.1286 0.0590 -0.0879 7.1250 -0.0000 -0.0000 -22.7543 -29.4029 -9.3351
